<svg xmlns="http://www.w3.org/2000/svg" viewBox="0 0 780 500">
  <rect width="780" height="500" rx="48" fill="#003399"/>
  <rect x="1.5" y="1.5" width="777" height="497" rx="47" fill="none" stroke="rgba(255,255,255,0.15)" stroke-width="3"/>
  <g transform="translate(390,185)">
    <g id="s2"><polygon points="0,-22 5,-6 21,-6 8.5,2.5 13,18 0,8 -13,18 -8.5,2.5 -21,-6 -5,-6" fill="#FFCC00"/></g>
    <use href="#s2" transform="rotate(0)   translate(0,-74)"/>
    <use href="#s2" transform="rotate(30)  translate(0,-74)"/>
    <use href="#s2" transform="rotate(60)  translate(0,-74)"/>
    <use href="#s2" transform="rotate(90)  translate(0,-74)"/>
    <use href="#s2" transform="rotate(120) translate(0,-74)"/>
    <use href="#s2" transform="rotate(150) translate(0,-74)"/>
    <use href="#s2" transform="rotate(180) translate(0,-74)"/>
    <use href="#s2" transform="rotate(210) translate(0,-74)"/>
    <use href="#s2" transform="rotate(240) translate(0,-74)"/>
    <use href="#s2" transform="rotate(270) translate(0,-74)"/>
    <use href="#s2" transform="rotate(300) translate(0,-74)"/>
    <use href="#s2" transform="rotate(330) translate(0,-74)"/>
  </g>
  <text x="390" y="370" text-anchor="middle" font-family="Arial Black, sans-serif" font-size="68" font-weight="900" fill="white" letter-spacing="8">SEPA</text>
  <text x="390" y="450" text-anchor="middle" font-family="Arial, sans-serif" font-size="44" font-weight="400" fill="rgba(255,255,255,0.70)" letter-spacing="3">Lastschrift</text>
</svg>
